<?xml version="1.0" encoding="utf-8"?>
<!-- Generator: Adobe Illustrator 27.3.1, SVG Export Plug-In . SVG Version: 6.00 Build 0)  -->
<svg version="1.1" id="Layer_1" xmlns="http://www.w3.org/2000/svg" xmlns:xlink="http://www.w3.org/1999/xlink" x="0px" y="0px"
	 viewBox="0 0 317 68" style="enable-background:new 0 0 317 68;" xml:space="preserve">
<style type="text/css">
	.st0{fill:#3F66B0;}
	.st1{fill:#FFFFFF;}
	.st2{fill:#FFFFFF;stroke:#FFFFFF;stroke-width:1.2932;stroke-miterlimit:10;}
</style>
<g>
	<path class="st0" d="M52.9,34.7c-0.4,8.9-7.1,16-15.6,17.2c-1.3,0.2-2.2,1.3-2.2,2.6l0,0c0,1.6,1.4,2.8,3,2.6
		c11-1.5,19.7-10.7,20.1-22.2c0.4-10.8-6.5-20.2-16.4-23.2c-1.7-0.5-3.4,0.7-3.4,2.5c0,1.1,0.7,2.2,1.8,2.5
		C47.8,19,53.3,26.3,52.9,34.7z"/>
	<path class="st0" d="M21.1,54c-1.2,0-2.3,0.4-3.2,1.1C11.2,49.7,7.4,41.6,7.7,32.8c0.3-8.4,4.5-16,11.1-20.8
		c0.9,0.8,2.1,1.2,3.4,1.2c3,0,5.4-2.4,5.4-5.4s-2.4-5.4-5.4-5.4s-5.4,2.4-5.4,5.4c0,0.3,0,0.7,0.1,1C9.2,14.3,4.4,23,4,32.7
		C3.6,42.8,8,52.1,15.8,58.2c-0.1,0.4-0.2,0.8-0.2,1.3c0,3,2.4,5.4,5.4,5.4s5.4-2.4,5.4-5.4C26.5,56.4,24.1,54,21.1,54z"/>
	<path class="st0" d="M89.2,45.5c-2.2,0-4.1,1.3-5,3.2H57.6c0,0,0,0,0,0L57,49.5C52.3,56.3,44.9,60.4,36.8,61
		c-1,0.1-1.8,0.9-1.8,1.9c0,1.1,0.9,2,2,1.9c8.9-0.6,17.1-5,22.5-12.2c0,0,0,0,0,0H84c0.7,2.3,2.7,3.9,5.2,3.9c3,0,5.4-2.4,5.4-5.4
		C94.6,47.9,92.2,45.5,89.2,45.5z"/>
	<path class="st0" d="M102.2,37.4c-2.3,0-4.2,1.4-5,3.4H64.2c-1,0-1.9,0.8-1.9,1.9c0,1,0.8,1.9,1.9,1.9H97c0.7,2.2,2.8,3.8,5.2,3.8
		c3,0,5.4-2.4,5.4-5.4C107.6,39.9,105.2,37.4,102.2,37.4z"/>
	<path class="st0" d="M113.1,22.7c-2.2,0-4,1.3-4.9,3.1H87.7l-7.4,7.4H65.7c-0.3-15.5-12.2-28.4-27.6-30C37,3.1,36.1,3.9,36,5
		c0,1,0.7,1.8,1.7,1.9C51.8,8.4,62.5,20.7,61.9,35L61.9,37h19.9l7.4-7.4h18.6c0.6,2.3,2.7,4.1,5.3,4.1c3,0,5.4-2.4,5.4-5.4
		C118.5,25.2,116.1,22.7,113.1,22.7z"/>
	<path class="st0" d="M70.2,24.1c2.3,0,4.3-1.5,5.1-3.6h21.8c0.8,2.1,2.8,3.6,5.1,3.6c3,0,5.4-2.4,5.4-5.4s-2.4-5.4-5.4-5.4
		c-2.3,0-4.3,1.5-5.1,3.6H75.3c-0.8-2.1-2.8-3.6-5.1-3.6c-3,0-5.4,2.4-5.4,5.4S67.2,24.1,70.2,24.1z"/>
	<g>
		<path class="st0" d="M28.7,26.4v5.4h8.7v5h-8.7v5.8h9.8v5.2H22.2V21.2h16.3v5.2L28.7,26.4L28.7,26.4z"/>
	</g>
</g>
<g>
	<path class="st1" d="M130.2,22.9v1.6h3.6V27h-3.6v1.6h4.4v2.8h-7.4V20.1h7.4v2.8L130.2,22.9L130.2,22.9z"/>
	<path class="st1" d="M146.2,25.8c0,3.5-2.4,5.7-6.2,5.7h-3.7V20.1l3.7,0C143.8,20.1,146.2,22.2,146.2,25.8z M143.2,25.8
		c0-1.8-1.2-2.9-3.3-2.9h-0.7v5.7h0.7C141.9,28.6,143.2,27.5,143.2,25.8z"/>
	<path class="st1" d="M147.7,20.1h3v11.4h-3V20.1z"/>
	<path class="st1" d="M155.7,22.9v1.8h3.6v2.5h-3.6v4.2h-3V20h7.4v2.8H155.7z"/>
	<path class="st1" d="M161.4,20.1h3v11.4h-3V20.1z"/>
	<path class="st1" d="M165.9,25.8c0-3.4,2.7-6,6.3-6c1.5,0,3,0.7,4.2,1.7l-1.7,2.2c-0.7-0.6-1.6-1.1-2.5-1.1c-1.8,0-3.2,1.3-3.2,3.1
		c0,1.8,1.5,3.1,3.2,3.1c1,0,1.8-0.5,2.5-1.1l1.7,2.3c-1.1,1-2.5,1.7-4.3,1.7C168.9,31.7,165.9,29.3,165.9,25.8z"/>
	<path class="st1" d="M180.6,22.9v1.6h3.6V27h-3.6v1.6h4.4v2.8h-7.4V20.1h7.4v2.8L180.6,22.9L180.6,22.9z"/>
	<path class="st1" d="M198.9,22.9h-2.7v8.6h-3v-8.6h-2.7v-2.8h8.5L198.9,22.9L198.9,22.9z"/>
	<path class="st1" d="M203.2,22.9v1.6h3.6V27h-3.6v1.6h4.4v2.8h-7.4V20.1h7.4v2.8L203.2,22.9L203.2,22.9z"/>
	<path class="st1" d="M208.8,25.8c0-3.4,2.7-6,6.3-6c1.5,0,3,0.7,4.2,1.7l-1.7,2.2c-0.7-0.6-1.6-1.1-2.5-1.1c-1.8,0-3.2,1.3-3.2,3.1
		c0,1.8,1.5,3.1,3.2,3.1c1,0,1.8-0.5,2.5-1.1l1.7,2.3c-1.1,1-2.5,1.7-4.3,1.7C211.8,31.7,208.8,29.3,208.8,25.8z"/>
	<path class="st1" d="M230,20.1v11.4h-3v-4.3h-3.4v4.3h-3V20.1h3v4.3h3.4v-4.3L230,20.1L230,20.1z"/>
	<path class="st1" d="M241.8,20.1v11.5h-1l-5.9-5.7v5.6h-3V20h1l5.8,5.7v-5.6H241.8z"/>
	<path class="st1" d="M243.3,25.8c0-3.4,2.7-6,6.3-6s6.3,2.6,6.3,6c0,3.4-2.7,6-6.3,6C246,31.8,243.3,29.2,243.3,25.8z M252.8,25.8
		c0-1.8-1.4-3.1-3.2-3.1c-1.8,0-3.2,1.4-3.2,3.1c0,1.8,1.4,3.1,3.2,3.1C251.4,28.9,252.8,27.5,252.8,25.8z"/>
	<path class="st1" d="M264.7,28.6v2.8h-7.4V20.1h3v8.6H264.7z"/>
	<path class="st1" d="M265.3,25.8c0-3.4,2.7-6,6.3-6c3.5,0,6.3,2.6,6.3,6c0,3.4-2.7,6-6.3,6C268,31.8,265.3,29.2,265.3,25.8z
		 M274.7,25.8c0-1.8-1.4-3.1-3.2-3.1c-1.8,0-3.2,1.4-3.2,3.1c0,1.8,1.4,3.1,3.2,3.1C273.4,28.9,274.7,27.5,274.7,25.8z"/>
	<path class="st1" d="M291,26c0,3.5-2.6,5.7-5.9,5.7c-3.6,0-6.4-2.7-6.4-6c0-3.3,2.7-6,6.3-6c1.4,0,3.1,0.6,4.1,1.5l-1.7,2.3
		c-0.6-0.6-1.5-1-2.4-1c-1.7,0-3.2,1.4-3.2,3.2c0,1.6,1.3,3.2,3.4,3.2c1.4,0,2.4-0.7,2.4-1.8h-2.6v-2.3h5.8
		C291,25.3,291,25.7,291,26z"/>
	<path class="st1" d="M292.5,20.1h3v11.4h-3V20.1z"/>
	<path class="st1" d="M300.5,22.9v1.6h3.6V27h-3.6v1.6h4.4v2.8h-7.4V20.1h7.4v2.8L300.5,22.9L300.5,22.9z"/>
	<path class="st1" d="M306,29.5l1.8-1.8c0.5,0.7,1.4,1.1,2.3,1.1c0.6,0,1.3-0.2,1.3-0.7c0-0.6-1.2-1.1-2.3-1.6
		c-1.4-0.6-2.7-1.6-2.7-3.3c0-2,1.9-3.4,4-3.4c1.7,0,3.1,0.8,3.5,1.9l-1.7,1.7c-0.3-0.6-1.2-0.9-1.8-0.9c-0.6,0-1.1,0.3-1.1,0.7
		c0,0.5,0.8,0.7,2,1.2c1.8,0.7,3,1.8,3,3.5c0,2.2-2,3.5-4.3,3.5C308.2,31.6,306.5,30.8,306,29.5z"/>
</g>
<line class="st2" x1="127.2" y1="44.1" x2="171.1" y2="44.1"/>
<g>
	<path class="st1" d="M184.1,40.8v0.7h-3.1v2.2h3.1v0.7h-3.1v2.2h3.1v0.7H180v-6.6H184.1z"/>
	<path class="st1" d="M186.2,40.8l4.3,5.2v-5.2h0.9v6.6h-1l-4.2-5.1v5.1h-0.9v-6.6H186.2z"/>
	<path class="st1" d="M194.6,43.9c-0.5-0.2-1-0.4-1.3-0.7c-0.3-0.3-0.5-0.6-0.5-1c0-0.4,0.2-0.7,0.5-1c0.3-0.3,0.8-0.4,1.3-0.4
		c0.5,0,0.9,0.2,1.3,0.5c0.2,0.2,0.3,0.4,0.4,0.7l-0.8,0.3c-0.1-0.2-0.2-0.4-0.3-0.5c-0.2-0.2-0.4-0.2-0.6-0.2
		c-0.2,0-0.4,0.1-0.6,0.2c-0.2,0.1-0.3,0.3-0.3,0.6c0,0.2,0.1,0.4,0.3,0.6c0.2,0.2,0.4,0.3,0.7,0.4c0.6,0.2,1.1,0.4,1.5,0.8
		c0.5,0.4,0.7,0.9,0.7,1.4c0,0.5-0.2,1-0.7,1.4c-0.5,0.4-1,0.6-1.7,0.6c-0.7,0-1.2-0.2-1.7-0.6c-0.4-0.3-0.6-0.7-0.7-1.2l0.9-0.3
		c0.1,0.5,0.2,0.8,0.5,1c0.3,0.2,0.6,0.4,1,0.4c0.4,0,0.7-0.1,1-0.4c0.3-0.3,0.4-0.6,0.4-0.9c0-0.4-0.1-0.7-0.4-0.9
		C195.4,44.3,195,44.1,194.6,43.9z"/>
	<path class="st1" d="M202.1,40.8h0.9v4.6c-0.1,0.5-0.3,1-0.8,1.3c-0.5,0.4-1.1,0.6-1.8,0.6c-0.7,0-1.3-0.2-1.8-0.7
		c-0.5-0.4-0.7-1-0.7-1.6v-4.4h0.9v4.4c0,0.4,0.2,0.8,0.5,1.1c0.3,0.3,0.7,0.4,1.2,0.4c0.4,0,0.8-0.1,1.1-0.4
		c0.3-0.3,0.5-0.6,0.5-1.1L202.1,40.8L202.1,40.8z"/>
	<path class="st1" d="M206.1,45.2h-0.9v2.1h-0.9v-6.6h2.2c0.6,0.1,1.2,0.3,1.6,0.7c0.5,0.4,0.7,0.9,0.7,1.5c0,0.6-0.3,1.1-0.8,1.6
		c-0.3,0.3-0.6,0.5-0.9,0.5l1.7,2.3h-1.1L206.1,45.2z M205.2,41.5v3h0.9c0.4,0,0.8-0.1,1.2-0.4c0.3-0.3,0.5-0.6,0.5-1.1
		c0-0.4-0.2-0.8-0.5-1.1c-0.3-0.3-0.7-0.4-1.2-0.4L205.2,41.5L205.2,41.5z"/>
	<path class="st1" d="M210.7,40.8v6.6h-0.9v-6.6H210.7z"/>
	<path class="st1" d="M212.8,40.8l4.3,5.2v-5.2h0.9v6.6h-1l-4.2-5.1v5.1h-0.9v-6.6H212.8z"/>
	<path class="st1" d="M225.6,46.5c-0.8,0.6-1.7,1-2.7,1c-1.1,0-2-0.3-2.8-1c-0.8-0.7-1.1-1.4-1.1-2.4c0-0.9,0.4-1.7,1.1-2.4
		c0.8-0.7,1.7-1,2.8-1c1,0,2,0.3,2.8,1l-0.7,0.5c-0.7-0.5-1.4-0.8-2.1-0.8c-0.8,0-1.5,0.3-2.1,0.8c-0.6,0.5-0.9,1.1-0.9,1.9
		c0,0.7,0.3,1.4,0.9,1.9c0.6,0.5,1.3,0.8,2.1,0.8c0.7,0,1.3-0.2,1.7-0.5v-2h0.9L225.6,46.5L225.6,46.5z"/>
	<path class="st1" d="M233,40.8v0.7h-2.7v2.2h2.7v0.7h-2.7v2.9h-0.9v-6.6H233z"/>
	<path class="st1" d="M238.1,40.8h0.9v4.6c-0.1,0.5-0.3,1-0.8,1.3c-0.5,0.4-1.1,0.6-1.8,0.6c-0.7,0-1.3-0.2-1.8-0.7
		c-0.5-0.4-0.7-1-0.7-1.6v-4.4h0.9v4.4c0,0.4,0.2,0.8,0.5,1.1c0.3,0.3,0.7,0.4,1.2,0.4c0.4,0,0.8-0.1,1.1-0.4
		c0.3-0.3,0.5-0.6,0.5-1.1L238.1,40.8L238.1,40.8z"/>
	<path class="st1" d="M242.5,41.5v5.8h-0.9v-5.8h-1.8v-0.7h4.5v0.7H242.5z"/>
	<path class="st1" d="M249.3,40.8h0.9v4.6c-0.1,0.5-0.3,1-0.8,1.3c-0.5,0.4-1.1,0.6-1.8,0.6c-0.7,0-1.3-0.2-1.8-0.7
		c-0.5-0.4-0.7-1-0.7-1.6v-4.4h0.9v4.4c0,0.4,0.2,0.8,0.5,1.1c0.3,0.3,0.7,0.4,1.2,0.4c0.4,0,0.8-0.1,1.1-0.4
		c0.3-0.3,0.5-0.6,0.5-1.1L249.3,40.8L249.3,40.8z"/>
	<path class="st1" d="M253.3,45.2h-0.9v2.1h-0.9v-6.6h2.2c0.6,0.1,1.2,0.3,1.6,0.7c0.5,0.4,0.7,0.9,0.7,1.5c0,0.6-0.3,1.1-0.8,1.6
		c-0.3,0.3-0.6,0.5-0.9,0.5l1.7,2.3h-1.1L253.3,45.2z M252.4,41.5v3h0.9c0.4,0,0.8-0.1,1.2-0.4c0.3-0.3,0.5-0.6,0.5-1.1
		c0-0.4-0.2-0.8-0.5-1.1c-0.3-0.3-0.7-0.4-1.2-0.4L252.4,41.5L252.4,41.5z"/>
	<path class="st1" d="M261,40.8v0.7h-3.1v2.2h3.1v0.7h-3.1v2.2h3.1v0.7h-4.1v-6.6H261z"/>
	<path class="st1" d="M268.9,42.5l1.5,3.4l1.6-5.1h1l-2,6.6h-0.8l-1.5-3.5l-1.5,3.5h-0.8l-2-6.6h1l1.6,5.1l1.5-3.4H268.9z"/>
	<path class="st1" d="M274.5,40.8v6.6h-0.9v-6.6H274.5z"/>
	<path class="st1" d="M278.1,41.5v5.8h-0.9v-5.8h-1.8v-0.7h4.5v0.7H278.1z"/>
	<path class="st1" d="M281.5,44.4v2.9h-0.9v-6.6h0.9v2.9h3.1v-2.9h0.9v6.6h-0.9v-2.9H281.5z"/>
	<path class="st1" d="M291.5,41.5v5.8h-0.9v-5.8h-1.8v-0.7h4.5v0.7H291.5z"/>
	<path class="st1" d="M298.2,40.8v0.7H295v2.2h3.1v0.7H295v2.2h3.1v0.7h-4.1v-6.6H298.2z"/>
	<path class="st1" d="M305.2,45.9l0.7,0.5c-0.8,0.7-1.8,1-2.8,1c-1.1,0-2-0.3-2.8-1c-0.8-0.7-1.1-1.4-1.1-2.4c0-0.9,0.4-1.7,1.1-2.4
		c0.8-0.7,1.7-1,2.8-1c1,0,2,0.3,2.8,1l-0.7,0.5c-0.7-0.5-1.4-0.8-2.1-0.8c-0.8,0-1.5,0.3-2.1,0.8c-0.6,0.5-0.9,1.1-0.9,1.9
		c0,0.7,0.3,1.4,0.9,1.9c0.6,0.5,1.3,0.8,2.1,0.8C303.8,46.7,304.5,46.5,305.2,45.9z"/>
	<path class="st1" d="M307.6,44.4v2.9h-0.9v-6.6h0.9v2.9h3.1v-2.9h0.9v6.6h-0.9v-2.9H307.6z"/>
</g>
</svg>
