<?xml version="1.0" encoding="utf-8"?>
<!-- Generator: Adobe Illustrator 27.3.1, SVG Export Plug-In . SVG Version: 6.00 Build 0)  -->
<svg version="1.1" id="Layer_1" xmlns="http://www.w3.org/2000/svg" xmlns:xlink="http://www.w3.org/1999/xlink" x="0px" y="0px"
	 viewBox="0 0 196 42" style="enable-background:new 0 0 196 42;" xml:space="preserve">
<style type="text/css">
	.st0{fill:#FFFFFF;}
	.st1{fill:#FFFFFF;stroke:#FFFFFF;stroke-width:0.8068;stroke-miterlimit:10;}
</style>
<g>
	<g>
		<path class="st0" d="M31.7,21.7c-0.2,5.5-4.4,10-9.7,10.7c-0.8,0.1-1.4,0.8-1.4,1.6l0,0c0,1,0.9,1.8,1.9,1.6
			c6.8-0.9,12.3-6.7,12.6-13.8c0.3-6.7-4.1-12.6-10.2-14.5c-1.1-0.3-2.1,0.4-2.1,1.6c0,0.7,0.4,1.4,1.1,1.6
			C28.5,11.9,31.9,16.4,31.7,21.7z"/>
		<path class="st0" d="M11.8,33.7c-0.8,0-1.4,0.2-2,0.7C5.7,31.1,3.3,26,3.5,20.5c0.2-5.2,2.8-10,7-13C11,8,11.8,8.3,12.6,8.3
			c1.9,0,3.4-1.5,3.4-3.4s-1.5-3.4-3.4-3.4S9.2,3,9.2,4.9c0,0.2,0,0.4,0.1,0.6c-4.8,3.4-7.8,8.9-8.1,14.9
			c-0.3,6.3,2.5,12.1,7.3,15.9c-0.1,0.3-0.1,0.5-0.1,0.8c0,1.9,1.5,3.4,3.4,3.4s3.4-1.5,3.4-3.4C15.2,35.2,13.7,33.7,11.8,33.7z"/>
		<path class="st0" d="M54.3,28.4c-1.4,0-2.6,0.8-3.1,2H34.6c0,0,0,0,0,0l-0.3,0.5c-3,4.2-7.6,6.8-12.6,7.1c-0.6,0-1.1,0.5-1.1,1.2
			c0,0.7,0.6,1.2,1.2,1.2c5.5-0.4,10.6-3.1,14-7.6c0,0,0,0,0,0h15.2c0.4,1.4,1.7,2.4,3.3,2.4c1.9,0,3.4-1.5,3.4-3.4
			C57.7,29.9,56.2,28.4,54.3,28.4z"/>
		<path class="st0" d="M62.4,23.4c-1.4,0-2.6,0.9-3.1,2.1H38.7c-0.6,0-1.2,0.5-1.2,1.2c0,0.6,0.5,1.2,1.2,1.2h20.5
			c0.4,1.4,1.7,2.3,3.2,2.3c1.9,0,3.4-1.5,3.4-3.4C65.8,24.9,64.3,23.4,62.4,23.4z"/>
		<path class="st0" d="M69.2,14.2c-1.3,0-2.5,0.8-3.1,1.9H53.4l-4.6,4.6h-9.1C39.5,11.1,32.1,3,22.4,2c-0.7-0.1-1.3,0.4-1.3,1.1
			c0,0.6,0.4,1.1,1,1.2c8.8,0.9,15.5,8.6,15.1,17.5l0,1.2h12.4l4.6-4.6h11.6c0.4,1.5,1.7,2.5,3.3,2.5c1.9,0,3.4-1.5,3.4-3.4
			C72.6,15.7,71.1,14.2,69.2,14.2z"/>
		<path class="st0" d="M42.5,15.1c1.5,0,2.7-0.9,3.2-2.2h13.6c0.5,1.3,1.7,2.2,3.2,2.2c1.9,0,3.4-1.5,3.4-3.4s-1.5-3.4-3.4-3.4
			c-1.5,0-2.7,0.9-3.2,2.2H45.6c-0.5-1.3-1.7-2.2-3.2-2.2c-1.9,0-3.4,1.5-3.4,3.4S40.6,15.1,42.5,15.1z"/>
		<g>
			<path class="st0" d="M16.6,16.5v3.4H22V23h-5.4v3.6h6.1v3.2H12.6V13.3h10.2v3.2L16.6,16.5L16.6,16.5z"/>
		</g>
	</g>
	<g>
		<path class="st0" d="M79.9,14.3v1h2.3v1.6h-2.3v1h2.7v1.8H78v-7.1h4.6v1.8L79.9,14.3L79.9,14.3z"/>
		<path class="st0" d="M89.9,16.1c0,2.2-1.5,3.5-3.9,3.5h-2.3v-7.1l2.3,0C88.4,12.6,89.9,13.9,89.9,16.1z M88,16.1
			c0-1.1-0.8-1.8-2.1-1.8h-0.4v3.6H86C87.2,17.9,88,17.2,88,16.1z"/>
		<path class="st0" d="M90.8,12.6h1.9v7.1h-1.9V12.6z"/>
		<path class="st0" d="M95.8,14.3v1.2h2.3V17h-2.3v2.6h-1.9v-7.1h4.6v1.8H95.8z"/>
		<path class="st0" d="M99.4,12.6h1.9v7.1h-1.9V12.6z"/>
		<path class="st0" d="M102.2,16.1c0-2.1,1.7-3.7,3.9-3.7c0.9,0,1.9,0.4,2.6,1.1l-1.1,1.4c-0.4-0.4-1-0.7-1.5-0.7
			c-1.1,0-2,0.8-2,1.9c0,1.1,1,1.9,2,1.9c0.6,0,1.1-0.3,1.6-0.7l1.1,1.4c-0.7,0.6-1.6,1-2.7,1C104,19.8,102.2,18.3,102.2,16.1z"/>
		<path class="st0" d="M111.4,14.3v1h2.3v1.6h-2.3v1h2.7v1.8h-4.6v-7.1h4.6v1.8L111.4,14.3L111.4,14.3z"/>
		<path class="st0" d="M122.8,14.3h-1.7v5.3h-1.9v-5.3h-1.7v-1.8h5.3L122.8,14.3L122.8,14.3z"/>
		<path class="st0" d="M125.5,14.3v1h2.3v1.6h-2.3v1h2.7v1.8h-4.6v-7.1h4.6v1.8L125.5,14.3L125.5,14.3z"/>
		<path class="st0" d="M128.9,16.1c0-2.1,1.7-3.7,3.9-3.7c0.9,0,1.9,0.4,2.6,1.1l-1.1,1.4c-0.4-0.4-1-0.7-1.5-0.7
			c-1.1,0-2,0.8-2,1.9c0,1.1,1,1.9,2,1.9c0.6,0,1.1-0.3,1.6-0.7l1.1,1.4c-0.7,0.6-1.6,1-2.7,1C130.8,19.8,128.9,18.3,128.9,16.1z"/>
		<path class="st0" d="M142.2,12.6v7.1h-1.9V17h-2.1v2.7h-1.9v-7.1h1.9v2.7h2.1v-2.7L142.2,12.6L142.2,12.6z"/>
		<path class="st0" d="M149.5,12.6v7.2H149l-3.7-3.5v3.5h-1.9v-7.2h0.6l3.6,3.5v-3.5H149.5z"/>
		<path class="st0" d="M150.5,16.1c0-2.1,1.7-3.8,3.9-3.8c2.2,0,3.9,1.6,3.9,3.8c0,2.1-1.7,3.7-3.9,3.7
			C152.2,19.8,150.5,18.2,150.5,16.1z M156.4,16.1c0-1.1-0.9-1.9-2-1.9c-1.1,0-2,0.8-2,1.9c0,1.1,0.9,1.9,2,1.9
			C155.5,18,156.4,17.2,156.4,16.1z"/>
		<path class="st0" d="M163.8,17.9v1.8h-4.6v-7.1h1.9v5.3H163.8z"/>
		<path class="st0" d="M164.2,16.1c0-2.1,1.7-3.8,3.9-3.8s3.9,1.6,3.9,3.8c0,2.1-1.7,3.7-3.9,3.7C165.9,19.8,164.2,18.2,164.2,16.1z
			 M170.1,16.1c0-1.1-0.9-1.9-2-1.9s-2,0.8-2,1.9c0,1.1,0.9,1.9,2,1.9S170.1,17.2,170.1,16.1z"/>
		<path class="st0" d="M180.2,16.3c0,2.2-1.6,3.6-3.7,3.6c-2.3,0-4-1.7-4-3.7c0-2,1.7-3.7,3.9-3.7c0.9,0,1.9,0.4,2.5,0.9l-1,1.4
			c-0.4-0.4-1-0.6-1.5-0.6c-1.1,0-2,0.9-2,2c0,1,0.8,2,2.1,2c0.9,0,1.5-0.4,1.5-1.1h-1.6v-1.4h3.6C180.2,15.8,180.2,16.1,180.2,16.3
			z"/>
		<path class="st0" d="M181.2,12.6h1.9v7.1h-1.9V12.6z"/>
		<path class="st0" d="M186.1,14.3v1h2.3v1.6h-2.3v1h2.7v1.8h-4.6v-7.1h4.6v1.8L186.1,14.3L186.1,14.3z"/>
		<path class="st0" d="M189.6,18.5l1.1-1.1c0.3,0.4,0.8,0.7,1.4,0.7c0.4,0,0.8-0.1,0.8-0.4c0-0.4-0.7-0.7-1.4-1
			c-0.9-0.4-1.7-1-1.7-2.1c0-1.2,1.2-2.1,2.5-2.1c1.1,0,1.9,0.5,2.2,1.2l-1.1,1c-0.2-0.4-0.8-0.5-1.1-0.5c-0.4,0-0.7,0.2-0.7,0.4
			c0,0.3,0.5,0.4,1.3,0.8c1.1,0.5,1.8,1.1,1.8,2.2c0,1.4-1.3,2.2-2.7,2.2C191,19.8,189.9,19.2,189.6,18.5z"/>
	</g>
	<line class="st1" x1="78" y1="27.5" x2="105.4" y2="27.5"/>
	<g>
		<path class="st0" d="M113.5,25.5v0.4h-2v1.4h2v0.4h-2v1.4h2v0.4H111v-4.1H113.5z"/>
		<path class="st0" d="M114.8,25.5l2.7,3.3v-3.3h0.6v4.1h-0.7l-2.6-3.2v3.2h-0.6v-4.1H114.8z"/>
		<path class="st0" d="M120.1,27.4c-0.3-0.1-0.6-0.2-0.8-0.4c-0.2-0.2-0.3-0.4-0.3-0.6c0-0.2,0.1-0.5,0.3-0.6
			c0.2-0.2,0.5-0.3,0.8-0.3c0.3,0,0.6,0.1,0.8,0.3c0.1,0.1,0.2,0.2,0.3,0.4l-0.5,0.2c-0.1-0.2-0.1-0.3-0.2-0.3
			c-0.1-0.1-0.2-0.1-0.4-0.1c-0.1,0-0.3,0-0.4,0.1s-0.2,0.2-0.2,0.4c0,0.1,0.1,0.3,0.2,0.4c0.1,0.1,0.3,0.2,0.5,0.3
			c0.4,0.1,0.7,0.3,0.9,0.5c0.3,0.2,0.4,0.5,0.4,0.9c0,0.3-0.1,0.6-0.4,0.9c-0.3,0.2-0.6,0.4-1.1,0.4c-0.4,0-0.8-0.1-1.1-0.4
			c-0.2-0.2-0.4-0.4-0.4-0.8l0.6-0.2c0,0.3,0.1,0.5,0.3,0.7c0.2,0.2,0.4,0.2,0.6,0.2c0.2,0,0.5-0.1,0.6-0.2c0.2-0.2,0.3-0.3,0.3-0.6
			c0-0.2-0.1-0.4-0.3-0.6C120.6,27.6,120.4,27.5,120.1,27.4z"/>
		<path class="st0" d="M124.8,25.5h0.6v2.9c-0.1,0.3-0.2,0.6-0.5,0.8c-0.3,0.3-0.7,0.4-1.1,0.4c-0.5,0-0.8-0.1-1.2-0.4
			c-0.3-0.3-0.5-0.6-0.5-1v-2.7h0.6v2.7c0,0.3,0.1,0.5,0.3,0.7c0.2,0.2,0.4,0.3,0.7,0.3c0.3,0,0.5-0.1,0.7-0.3
			c0.2-0.2,0.3-0.4,0.3-0.7L124.8,25.5L124.8,25.5z"/>
		<path class="st0" d="M127.2,28.2h-0.6v1.3h-0.6v-4.1h1.3c0.4,0,0.7,0.2,1,0.4c0.3,0.3,0.5,0.6,0.5,1c0,0.4-0.2,0.7-0.5,1
			c-0.2,0.2-0.4,0.3-0.6,0.3l1.1,1.4h-0.7L127.2,28.2z M126.7,25.9v1.9h0.6c0.3,0,0.5-0.1,0.7-0.3c0.2-0.2,0.3-0.4,0.3-0.7
			c0-0.3-0.1-0.5-0.3-0.7c-0.2-0.2-0.4-0.3-0.7-0.3L126.7,25.9L126.7,25.9z"/>
		<path class="st0" d="M130.1,25.5v4.1h-0.6v-4.1H130.1z"/>
		<path class="st0" d="M131.5,25.5l2.7,3.3v-3.3h0.6v4.1h-0.7l-2.6-3.2v3.2h-0.6v-4.1H131.5z"/>
		<path class="st0" d="M139.4,29c-0.5,0.4-1,0.6-1.7,0.6c-0.7,0-1.3-0.2-1.7-0.6s-0.7-0.9-0.7-1.5c0-0.6,0.2-1.1,0.7-1.5
			c0.5-0.4,1-0.6,1.7-0.6c0.6,0,1.2,0.2,1.7,0.6l-0.4,0.3c-0.4-0.3-0.9-0.5-1.3-0.5c-0.5,0-0.9,0.2-1.3,0.5
			c-0.4,0.3-0.5,0.7-0.5,1.2c0,0.5,0.2,0.9,0.5,1.2c0.4,0.3,0.8,0.5,1.3,0.5c0.4,0,0.8-0.1,1.1-0.3v-1.2h0.6L139.4,29L139.4,29z"/>
		<path class="st0" d="M144,25.5v0.4h-1.7v1.4h1.7v0.4h-1.7v1.8h-0.6v-4.1H144z"/>
		<path class="st0" d="M147.2,25.5h0.6v2.9c0,0.3-0.2,0.6-0.5,0.8c-0.3,0.3-0.7,0.4-1.1,0.4c-0.5,0-0.8-0.1-1.2-0.4
			c-0.3-0.3-0.5-0.6-0.5-1v-2.7h0.6v2.7c0,0.3,0.1,0.5,0.3,0.7c0.2,0.2,0.4,0.3,0.7,0.3c0.3,0,0.5-0.1,0.7-0.3
			c0.2-0.2,0.3-0.4,0.3-0.7L147.2,25.5L147.2,25.5z"/>
		<path class="st0" d="M150,25.9v3.6h-0.6v-3.6h-1.1v-0.4h2.8v0.4H150z"/>
		<path class="st0" d="M154.2,25.5h0.6v2.9c0,0.3-0.2,0.6-0.5,0.8c-0.3,0.3-0.7,0.4-1.1,0.4c-0.5,0-0.8-0.1-1.2-0.4
			c-0.3-0.3-0.5-0.6-0.5-1v-2.7h0.6v2.7c0,0.3,0.1,0.5,0.3,0.7c0.2,0.2,0.4,0.3,0.7,0.3c0.3,0,0.5-0.1,0.7-0.3
			c0.2-0.2,0.3-0.4,0.3-0.7L154.2,25.5L154.2,25.5z"/>
		<path class="st0" d="M156.7,28.2h-0.6v1.3h-0.6v-4.1h1.3c0.4,0,0.7,0.2,1,0.4c0.3,0.3,0.5,0.6,0.5,1c0,0.4-0.2,0.7-0.5,1
			c-0.2,0.2-0.4,0.3-0.6,0.3l1.1,1.4h-0.7L156.7,28.2z M156.1,25.9v1.9h0.6c0.3,0,0.5-0.1,0.7-0.3c0.2-0.2,0.3-0.4,0.3-0.7
			c0-0.3-0.1-0.5-0.3-0.7c-0.2-0.2-0.4-0.3-0.7-0.3L156.1,25.9L156.1,25.9z"/>
		<path class="st0" d="M161.5,25.5v0.4h-2v1.4h2v0.4h-2v1.4h2v0.4h-2.6v-4.1H161.5z"/>
		<path class="st0" d="M166.4,26.5l0.9,2.1l1-3.2h0.6l-1.3,4.1h-0.5l-0.9-2.2l-0.9,2.2h-0.5l-1.3-4.1h0.6l1,3.2l0.9-2.1H166.4z"/>
		<path class="st0" d="M169.9,25.5v4.1h-0.6v-4.1H169.9z"/>
		<path class="st0" d="M172.2,25.9v3.6h-0.6v-3.6h-1.1v-0.4h2.8v0.4H172.2z"/>
		<path class="st0" d="M174.3,27.8v1.8h-0.6v-4.1h0.6v1.8h1.9v-1.8h0.6v4.1h-0.6v-1.8H174.3z"/>
		<path class="st0" d="M180.6,25.9v3.6H180v-3.6h-1.1v-0.4h2.8v0.4H180.6z"/>
		<path class="st0" d="M184.7,25.5v0.4h-2v1.4h2v0.4h-2v1.4h2v0.4h-2.6v-4.1H184.7z"/>
		<path class="st0" d="M189.1,28.7l0.4,0.3c-0.5,0.4-1.1,0.6-1.7,0.6c-0.7,0-1.3-0.2-1.7-0.6c-0.5-0.4-0.7-0.9-0.7-1.5
			c0-0.6,0.2-1.1,0.7-1.5c0.5-0.4,1-0.6,1.7-0.6c0.6,0,1.2,0.2,1.7,0.6l-0.4,0.3c-0.4-0.3-0.9-0.5-1.3-0.5c-0.5,0-0.9,0.2-1.3,0.5
			c-0.4,0.3-0.5,0.7-0.5,1.2c0,0.5,0.2,0.9,0.5,1.2c0.4,0.3,0.8,0.5,1.3,0.5C188.2,29.2,188.7,29,189.1,28.7z"/>
		<path class="st0" d="M190.6,27.8v1.8H190v-4.1h0.6v1.8h1.9v-1.8h0.6v4.1h-0.6v-1.8H190.6z"/>
	</g>
</g>
</svg>
